#!OML:ASF I:\Actors\actors\Patient Classification 1\Patient 1\Session 1\Subject1.ASF
:FULLY-SPECIFIED
:DEGREES
130
root 0.0282713 17.4944 8.18292 10.9996 1.88159 -8.33882
lowerback -1.73314 0.530732 3.94381
upperback -8.81612 0.965 1.8554
thorax -8.25405 0.274116 -0.299963
lowerneck 0.676084 -12.2587 -10.7718
upperneck 11.2304 -18.3087 15.9144
head 5.74309 -8.82187 5.51469
rclavicle -7.8023e-015 -6.79844e-014
rhumerus -46.2638 -33.3489 -61.7245
rradius 26.0987
rwrist 43.4765
rhand 11.5914 -34.2036
rfingers 7.12502
rthumb 36.6342 -60.3618
lclavicle -7.8023e-015 -6.79844e-014
lhumerus -45.6137 30.6842 67.3477
lradius 23.9838
lwrist -19.1428
lhand -15.0321 -7.45967
lfingers 7.12502
lthumb 11.1337 22.225
rfemur -6.46613 24.7301 23.0413
rtibia 2.2436
rfoot -13.0356 -27.1418
rtoes 4.80008
lfemur -0.704179 -47.5705 -7.74001
ltibia -3.94445
lfoot -23.3481 54.165
ltoes 13.4222
131
root 0.0270896 17.4939 8.18531 10.9494 1.89301 -8.39186
lowerback -1.75518 0.53931 3.96475
upperback -8.75604 0.975111 1.88049
thorax -8.17492 0.280449 -0.285909
lowerneck 0.474978 -12.0149 -10.2415
upperneck 11.168 -17.8937 15.5102
head 5.61211 -8.60854 5.34653
rclavicle -1.66482e-014 -4.77083e-015
rhumerus -46.339 -33.4754 -61.6444
rradius 26.1497
rwrist 43.1188
rhand 11.494 -34.3608
rfingers 7.12502
rthumb 36.5419 -60.5423
lclavicle -1.66482e-014 -4.77083e-015
lhumerus -46.1175 31.7364 66.3215
lradius 23.857
lwrist -18.2835
lhand -14.924 -9.26815
lfingers 7.12502
lthumb 11.2381 20.4108
rfemur -6.40418 24.6715 23.1411
rtibia 2.25761
rfoot -13.0379 -27.0925
rtoes 4.68292
lfemur -0.662731 -47.3739 -7.7098
ltibia -3.93492
lfoot -23.048 54.0284
ltoes 13.0752
132
root 0.0263153 17.4931 8.1884 10.9094 1.88466 -8.41265
lowerback -1.79969 0.555064 3.95986
upperback -8.69046 0.991966 1.89762
thorax -8.07641 0.291987 -0.266061
lowerneck 0.261447 -11.779 -9.7988
upperneck 11.1235 -17.5023 15.1641
head 5.50959 -8.40659 5.20409
rclavicle -9.64106e-015 1.59028e-014
rhumerus -46.4195 -33.6156 -61.5414
rradius 26.1912
rwrist 42.7673
rhand 11.4488 -34.4811
rfingers 7.12502
rthumb 36.4992 -60.6734
lclavicle -9.64106e-015 1.59028e-014
lhumerus -46.0422 31.611 66.6813
lradius 24.373
lwrist -16.0856
lhand -15.7555 -7.33278
lfingers 7.12502
lthumb 10.436 22.3882
rfemur -6.35807 24.6376 23.1978
rtibia 2.30408
rfoot -13.0929 -27.0581
rtoes 4.66261
lfemur -0.571324 -47.3332 -7.75073
ltibia -3.9464
lfoot -23.1145 53.9866
ltoes 13.1572
133
root 0.0253992 17.4927 8.19199 10.8712 1.88235 -8.39415
lowerback -1.85971 0.57895 3.92959
upperback -8.62062 1.01688 1.89741
thorax -7.96377 0.308851 -0.250592
lowerneck -0.0117975 -11.5645 -9.42639
upperneck 11.1852 -17.155 14.828
head 5.46618 -8.22234 5.06399
rclavicle 2.82274e-014 -3.97569e-016
rhumerus -46.504 -33.6974 -61.4656
rradius 26.2685
rwrist 42.4136
rhand 11.5241 -34.47
rfingers 7.12502
rthumb 36.5705 -60.6443
lclavicle 2.82274e-014 -3.97569e-016
lhumerus -46.0801 31.892 66.5971
lradius 24.5246
lwrist -15.2582
lhand -16.3157 -6.80587
lfingers 7.12502
lthumb 9.89561 22.9416
rfemur -6.31511 24.6045 23.2045
rtibia 2.35139
rfoot -13.1846 -27.0337
rtoes 4.77285
lfemur -0.465715 -47.4104 -7.84992
ltibia -3.94931
lfoot -23.3816 53.9986
ltoes 13.3859
134
root 0.025089 17.4924 8.19527 10.8393 1.89787 -8.38448
lowerback -1.92138 0.619565 3.93475
upperback -8.55466 1.06489 1.88765
thorax -7.85347 0.33422 -0.265854
lowerneck -0.289356 -11.3839 -9.11049
upperneck 11.2902 -16.8666 14.5282
head 5.45501 -8.06605 4.93584
rclavicle 4.62174e-015 2.5842e-014
rhumerus -46.5886 -33.6622 -61.4581
rradius 26.4197
rwrist 41.8817
rhand 11.5796 -34.4023
rfingers 7.12502
rthumb 36.623 -60.5633
lclavicle 4.62174e-015 2.5842e-014
lhumerus -46.1086 32.2091 66.418
lradius 24.478
lwrist -15.3129
lhand -16.5428 -6.91072
lfingers 7.12502
lthumb 9.67649 22.847
rfemur -6.27937 24.5045 23.2127
rtibia 2.3821
rfoot -13.2201 -26.9532
rtoes 4.8882
lfemur -0.406652 -47.4017 -7.90731
ltibia -3.94649
lfoot -23.3597 53.9668
ltoes 13.2702
135
root 0.0259049 17.4924 8.19817 10.8025 1.92318 -8.41877
lowerback -1.9641 0.655271 3.99748
upperback -8.49332 1.11003 1.89349
thorax -7.75948 0.354549 -0.296601
lowerneck -0.479537 -11.1848 -8.87859
upperneck 11.3092 -16.5647 14.3671
head 5.42175 -7.90737 4.87073
rclavicle 2.5196e-014 -1.19271e-014
rhumerus -46.6571 -33.6465 -61.421
rradius 26.527
rwrist 41.4372
rhand 11.7032 -34.292
rfingers 7.12502
rthumb 36.7399 -60.4232
lclavicle 2.5196e-014 -1.19271e-014
lhumerus -46.1169 32.435 66.2978
lradius 24.4367
lwrist -15.8842
lhand -16.613 -6.98611
lfingers 7.12502
lthumb 9.60879 22.7748
rfemur -6.24973 24.3185 23.2694
rtibia 2.41307
rfoot -13.1605 -26.8058
rtoes 4.73395
lfemur -0.354625 -47.3423 -7.91228
ltibia -3.9439
lfoot -23.2203 53.909
ltoes 13.1307
136
root 0.027194 17.4928 8.20051 10.7549 1.94453 -8.43845
lowerback -1.97204 0.6587 4.02941
upperback -8.4467 1.11411 1.91027
thorax -7.70377 0.35636 -0.29704
lowerneck -0.564893 -10.9478 -8.65567
upperneck 11.2886 -16.2175 14.2481
head 5.35841 -7.73146 4.83112
rclavicle -2.98177e-015 3.4191e-014
rhumerus -46.7394 -33.641 -61.364
rradius 26.6048
rwrist 41.2231
rhand 11.8753 -34.2575
rfingers 7.12502
rthumb 36.9027 -60.3471
lclavicle -2.98177e-015 3.4191e-014
lhumerus -46.2106 32.7626 66.0418
lradius 24.3814
lwrist -17.0074
lhand -16.4795 -7.11563
lfingers 7.12502
lthumb 9.73752 22.6393
rfemur -6.2213 24.2003 23.3108
rtibia 2.46208
rfoot -13.1604 -26.7094
rtoes 4.66703
lfemur -0.286133 -47.3202 -7.95203
ltibia -3.92769
lfoot -23.2369 53.8374
ltoes 13.3559
137
root 0.0281674 17.4932 8.20247 10.7197 1.93763 -8.42948
lowerback -1.97312 0.671756 4.03249
upperback -8.41263 1.12966 1.9008
thorax -7.66503 0.364383 -0.309533
lowerneck -0.62796 -10.7129 -8.33097
upperneck 11.2596 -15.8677 14.0567
head 5.27562 -7.55477 4.75474
rclavicle 8.99501e-015 3.97569e-015
rhumerus -46.8468 -33.5818 -61.3642
rradius 26.6981
rwrist 41.0495
rhand 11.9238 -34.3219
rfingers 7.12502
rthumb 36.9486 -60.3996
lclavicle 8.99501e-015 3.97569e-015
lhumerus -46.2588 32.9226 65.8683
lradius 24.3414
lwrist -18.1852
lhand -16.3106 -7.23098
lfingers 7.12502
lthumb 9.90051 22.5162
rfemur -6.22048 24.1594 23.3118
rtibia 2.53997
rfoot -13.2199 -26.6547
rtoes 4.66878
lfemur -0.228402 -47.2676 -8.01466
ltibia -3.91887
lfoot -23.2187 53.7683
ltoes 13.552
138
root 0.0288742 17.4932 8.2043 10.6947 1.91407 -8.43773
lowerback -1.9816 0.712215 4.07576
upperback -8.37077 1.18086 1.86801
thorax -7.61134 0.386739 -0.370406
lowerneck -0.837882 -10.5131 -7.92043
upperneck 11.312 -15.5617 13.7684
head 5.23558 -7.39109 4.62056
rclavicle -1.01877e-014 1.35174e-014
rhumerus -46.9017 -33.4957 -61.4431
rradius 26.7638
rwrist 40.875
rhand 11.8996 -34.4107
rfingers 7.12502
rthumb 36.9257 -60.4943
lclavicle -1.01877e-014 1.35174e-014
lhumerus -46.2933 33.0851 65.6179
lradius 24.2009
lwrist -19.6063
lhand -15.9096 -7.95704
lfingers 7.12502
lthumb 10.2874 21.7714
rfemur -6.24359 24.0927 23.3283
rtibia 2.6441
rfoot -13.2484 -26.5676
rtoes 4.5576
lfemur -0.185543 -47.1558 -8.04253
ltibia -3.92429
lfoot -23.0385 53.72
ltoes 13.3509
139
root 0.0299641 17.4928 8.20607 10.6795 1.90036 -8.45626
lowerback -1.99291 0.748464 4.13902
upperback -8.32531 1.22725 1.84636
thorax -7.55226 0.405983 -0.430375
lowerneck -1.10935 -10.3328 -7.59763
upperneck 11.4144 -15.2848 13.4785
head 5.23364 -7.24113 4.49158
rclavicle -3.35946e-014 -8.34896e-015
rhumerus -46.9082 -33.4117 -61.5392
rradius 26.8201
rwrist 40.7835
rhand 11.9232 -34.4586
rfingers 7.12502
rthumb 36.948 -60.5365
lclavicle -3.35946e-014 -8.34896e-015
lhumerus -46.4261 33.4403 65.1481
lradius 23.9381
lwrist -21.3969
lhand -15.3922 -9.42951
lfingers 7.12502
lthumb 10.7865 20.2735
rfemur -6.27384 24.0367 23.3539
rtibia 2.73926
rfoot -13.2281 -26.5033
rtoes 4.40002
lfemur -0.17056 -47.0454 -8.03903
ltibia -3.92161
lfoot -22.8897 53.6405
ltoes 13.1739
140
root 0.0310931 17.492 8.20781 10.6775 1.90284 -8.45956
lowerback -2.01083 0.779062 4.16728
upperback -8.28417 1.26608 1.84273
thorax -7.49507 0.424598 -0.451467
lowerneck -1.20901 -10.1456 -7.38293
upperneck 11.3275 -14.9939 13.3041
head 5.16161 -7.09711 4.42776
rclavicle -5.01931e-015 4.81059e-014
rhumerus -46.9011 -33.3433 -61.5921
rradius 26.8667
rwrist 40.7563
rhand 11.9331 -34.4646
rfingers 7.12502
rthumb 36.9575 -60.54
lclavicle -5.01931e-015 4.81059e-014
lhumerus -46.3667 33.354 65.2108
lradius 23.9237
lwrist -22.4438
lhand -15.3433 -9.57602
lfingers 7.12502
lthumb 10.8336 20.1246
rfemur -6.29493 24.0022 23.3575
rtibia 2.78472
rfoot -13.1984 -26.4788
rtoes 4.28188
lfemur -0.181353 -46.9396 -8.02947
ltibia -3.91942
lfoot -22.7332 53.5338
ltoes 13.063
